<?xml version="1.0" standalone="no"?>
<svg viewBox="0 0 200 200" xmlns="http://www.w3.org/2000/svg">
  <path fill="#0F62FE" d="M47.3,-80.3C61.4,-73.7,73,-61.3,76.4,-46.9C79.8,-32.6,75,-16.3,73.2,-1C71.4,14.2,72.5,28.4,66,37.4C59.6,46.5,45.5,50.4,33.2,57.7C20.9,65,10.4,75.7,-3.1,81C-16.6,86.3,-33.1,86.2,-44.1,78.1C-55.1,70.1,-60.4,54,-68.4,39.7C-76.3,25.3,-86.8,12.7,-89.6,-1.6C-92.4,-15.9,-87.5,-31.8,-78.7,-44.6C-69.9,-57.5,-57.2,-67.2,-43.4,-74C-29.6,-80.8,-14.8,-84.6,0.9,-86.2C16.6,-87.7,33.2,-86.9,47.3,-80.3Z" transform="translate(100 100)" />
</svg>
